<?xml version="1.0" encoding="UTF-8" standalone="no"?>
<!-- Created with Inkscape (http://www.inkscape.org/) -->

<svg
   width="210mm"
   height="297mm"
   viewBox="0 0 210 297"
   version="1.1"
   id="svg21902"
   inkscape:version="1.2.1 (9c6d41e410, 2022-07-14)"
   sodipodi:docname="root_cross_trich1_only 1 layer separate paths polygons _withoutPSE.svg"
   xmlns:inkscape="http://www.inkscape.org/namespaces/inkscape"
   xmlns:sodipodi="http://sodipodi.sourceforge.net/DTD/sodipodi-0.dtd"
   xmlns="http://www.w3.org/2000/svg"
   xmlns:svg="http://www.w3.org/2000/svg">
  <sodipodi:namedview
     id="namedview21904"
     pagecolor="#ffffff"
     bordercolor="#000000"
     borderopacity="0.25"
     inkscape:showpageshadow="2"
     inkscape:pageopacity="0.0"
     inkscape:pagecheckerboard="0"
     inkscape:deskcolor="#d1d1d1"
     inkscape:document-units="mm"
     showgrid="false"
     inkscape:zoom="1.0759174"
     inkscape:cx="446.59564"
     inkscape:cy="592.51763"
     inkscape:window-width="1350"
     inkscape:window-height="1230"
     inkscape:window-x="808"
     inkscape:window-y="69"
     inkscape:window-maximized="0"
     inkscape:current-layer="layer1" />
  <defs
     id="defs21899" />
  <g
     inkscape:label="Layer 1"
     inkscape:groupmode="layer"
     id="layer1">
    <path
       style="fill:none;stroke:#000000;stroke-width:0.0328607"
       d="m 110.29407,192.13444 -5.46773,-0.8487 -3.72417,-3.72645 -3.724177,-3.72646 0.82555,-3.12608 0.91227,-3.17967 2.019457,-0.29422 1.93273,-0.24063 6.25995,0.22273 11.78089,0.40328 5.87527,0.2228 0.35433,0.0422 1.24405,3.56669 1.15504,3.75726 -3.7602,6.35394 -9.91123,1.38502 -5.77203,-0.81175 z"
       id="path21654"
       sodipodi:nodetypes="cccccccccccccccccc" />
    <path
       style="fill:none;stroke:#000000;stroke-width:0.0328607"
       d="m 89.825303,183.52586 -6.31,-0.27092 -3.38889,-4.83455 -3.36609,-4.80384 -1.17015,-5.75235 -1.17015,-5.80806 5.49833,-0.46802 18.73505,15.71256 0.19342,0.18525 -0.82351,3.12998 -0.82377,3.15171 z"
       id="path21656"
       sodipodi:nodetypes="cccccccccccc" />
    <path
       style="fill:none;stroke:#000000;stroke-width:0.0328607"
       d="m 89.625213,169.43625 -9.4797,-7.97709 0.0982,-1.95286 0.28781,-1.85449 3.24914,0.28184 3.20275,0.32823 5.88018,4.0911 5.88019,4.09109 2.020487,2.26054 2.19049,2.4471 0.0146,2.85015 -0.20447,2.74307 -3.564197,0.52364 -9.57551,-7.83232 z"
       id="path21658"
       sodipodi:nodetypes="ccccccccccccccc" />
    <path
       style="fill:none;stroke:#000000;stroke-width:0.0328607"
       d="m 113.97945,177.20635 -10.9478,-0.42369 0.2861,-5.39385 2.88023,-0.10381 10.21589,-0.50433 7.34675,-0.41156 4.33171,-2.37673 4.33171,-2.37673 3.49323,1.97062 3.51523,1.9867 -5.99976,4.02973 -6.02176,4.01365 -1.26004,-0.0112 -12.17149,-0.39884 z"
       id="path21660"
       sodipodi:nodetypes="ccccccccccccccc" />
    <path
       style="fill:none;stroke:#000000;stroke-width:0.0328607"
       d="m 109.36489,168.73822 0.49024,-2.29415 3.7793,-1.26848 3.7793,-1.26849 1.49795,-0.0606 1.49796,-0.0606 1.51158,3.02446 1.56677,3.20151 -6.57423,0.54847 -7.33426,0.42169 -0.70484,0.0503 z"
       id="path21662"
       sodipodi:nodetypes="cccccccccccc" />
    <path
       style="fill:none;stroke:#000000;stroke-width:0.0328607"
       d="m 122.21118,166.93913 -1.53706,-3.16792 1.28242,-1.20555 1.55461,-1.40364 4.26025,-0.97131 3.98805,-0.71843 1.60846,0.8243 1.72519,0.9322 -1.28402,2.10889 -1.50783,2.08638 -8.47045,4.62819 z"
       id="path21664"
       sodipodi:nodetypes="cccccccccccc" />
    <path
       style="fill:none;stroke:#000000;stroke-width:0.0328607"
       d="m 115.3574,160.11573 -2.14328,-3.58393 0.49271,-2.03167 0.49271,-2.03167 3.254,-1.25204 3.35387,-1.14144 1.42095,1.82736 1.32107,1.71676 0.0464,3.58681 0.0463,3.58681 -1.57493,1.39111 -1.57493,1.3911 -0.88719,0.0545 -1.4958,0.0624 -0.60861,0.008 -2.14327,-3.58393 z"
       id="path21666"
       sodipodi:nodetypes="ccccccccccccccccc" />
    <path
       style="fill:none;stroke:#000000;stroke-width:0.0328607"
       d="m 108.10707,164.31204 -1.71645,-1.92088 0.16451,-2.36349 0.16451,-2.36349 3.12998,-0.49249 3.20277,-0.42349 2.15144,3.5348 2.07863,3.46581 -3.58601,1.19613 -3.72946,1.24205 z"
       id="path21668"
       sodipodi:nodetypes="ccccccccccc" />
    <path
       style="fill:none;stroke:#000000;stroke-width:0.0328607"
       d="m 101.80732,169.55898 -2.160517,-2.4293 -0.72595,-0.81771 0.8835,-2.41185 0.943297,-2.47213 2.7744,0.52167 2.71459,0.58194 1.69781,1.90689 1.69558,2.04318 -0.9794,4.49423 -4.88708,0.19721 -0.52166,-0.003 z"
       id="path21670"
       sodipodi:nodetypes="ccccccccccccc" />
    <path
       style="fill:none;stroke:#000000;stroke-width:0.0328607"
       d="m 93.025993,162.21565 -5.71946,-4.02005 0.4485,-1.62566 0.76366,-1.49941 2.08692,0.16185 1.88334,0.14574 3.20009,0.84367 3.2001,0.84368 0.8369,2.08815 0.836887,2.08816 -0.887717,2.42339 -0.96453,2.44187 z"
       id="path21672"
       sodipodi:nodetypes="ccccccccccccc" />
    <path
       style="fill:none;stroke:#000000;stroke-width:0.0328607"
       d="m 103.50272,161.74559 -2.63883,-0.57692 -0.937807,-2.07135 -0.82036,-2.04318 0.32921,-0.28899 1.763777,-1.4461 1.43457,-1.1571 1.9345,-0.0638 1.9345,-0.0638 0.002,1.94465 -0.38682,6.32537 -2.61436,-0.5587 z"
       id="path21674"
       sodipodi:nodetypes="ccccccccccccc" />
    <path
       style="fill:none;stroke:#000000;stroke-width:0.0328607"
       d="m 95.699713,156.02634 -3.02129,-0.87481 0.80074,-2.57205 0.80094,-2.49526 2.35077,-1.25958 2.35077,-1.25958 2.039337,0.98763 2.06557,1.01385 -0.28919,2.19193 -0.54405,2.3979 -3.400577,2.6742 z"
       id="path21676"
       sodipodi:nodetypes="cccccccccccc" />
    <path
       style="fill:none;stroke:#000000;stroke-width:0.0328607"
       d="m 102.70393,153.65999 0.3315,-2.22135 0.27871,-1.89603 1.33911,-1.2435 1.40517,-1.26748 0.86175,1.65898 0.79569,1.68296 -0.56952,1.7062 -0.71547,1.74664 -1.96284,0.0996 -1.81689,0.0592 z"
       id="path21678"
       sodipodi:nodetypes="cccccccccccc" />
    <path
       style="fill:none;stroke:#000000;stroke-width:0.0328607"
       d="m 106.76311,155.6388 v -1.80659 l 0.56276,-1.68328 0.59225,-1.71277 1.82018,-0.76124 1.79067,-0.73175 1.24111,1.74069 1.24111,1.74069 -0.49369,2.00288 -0.52066,2.02984 -6.16037,0.98812 -0.0734,-1.80659 z"
       id="path21680"
       sodipodi:nodetypes="ccccccccccccc" />
    <path
       style="fill:none;stroke:#000000;stroke-width:0.0328607"
       d="m 107.11238,148.61892 -0.86618,-1.88966 -0.39884,-2.46359 -0.30562,-2.18132 0.84978,-0.82129 1.63793,-1.579 0.78816,-0.7577 1.55123,2.54311 1.57989,2.59811 -0.54442,4.67687 -1.38268,0.59724 -1.72117,0.70669 -0.41512,0.17794 z"
       id="path21682"
       sodipodi:nodetypes="cccccccccccccc" />
    <path
       style="fill:none;stroke:#000000;stroke-width:0.0328607"
       d="m 112.88766,150.49491 -1.22221,-1.72604 0.24832,-2.29109 0.3093,-2.34382 3.16887,-1.11462 3.28668,-1.00514 1.58707,0.65096 1.40828,0.59421 0.056,0.85479 0.0739,1.72423 0.0179,0.86944 -0.56581,1.50629 -0.59647,1.53695 -6.47034,2.47378 -1.30142,-1.72994 z"
       id="path21684"
       sodipodi:nodetypes="cccccccccccccccc" />
    <path
       style="fill:none;stroke:#000000;stroke-width:0.0328607"
       d="m 123.78926,157.20629 0.0431,-3.51001 1.7651,-0.117 1.689,-0.063 1.46265,0.49374 1.46266,0.49374 0.73625,2.36199 0.59993,2.42554 -7.59748,1.37103 -0.16125,-3.45602 z"
       id="path21686"
       sodipodi:nodetypes="ccccccccccc" />
    <path
       style="fill:none;stroke:#000000;stroke-width:0.0328607"
       d="m 122.30431,151.67249 -1.36936,-1.90202 1.11452,-3.03375 2.87183,-0.29541 2.87859,-0.13059 0.12476,0.86055 -0.30568,3.40556 -0.416,2.70993 -1.79042,0.11528 -1.73887,0.0571 z"
       id="path21688"
       sodipodi:nodetypes="ccccccccccc" />
    <path
       style="fill:none;stroke:#000000;stroke-width:0.0328607"
       d="m 128.85972,153.83812 -1.38303,-0.5161 0.70503,-5.32395 2.36052,-0.1945 2.72072,-0.22402 0.37323,-0.0435 -0.0441,0.28142 -0.0989,1.63207 -0.0549,1.35065 -1.57048,1.73585 -1.62192,1.75284 -1.38618,-0.45081 z"
       id="path21690"
       sodipodi:nodetypes="ccccccccccccc" />
    <path
       style="fill:none;stroke:#000000;stroke-width:0.0328607"
       d="m 128.08827,146.85998 0.0273,-4.19504 3.0437,-0.69875 3.03029,-0.67381 0.95239,1.35605 0.8887,1.45385 -1.21947,1.68106 -1.17237,1.55832 -0.50497,0.0538 -4.90337,0.39917 -0.14222,-0.93465 z"
       id="path21692"
       sodipodi:nodetypes="cccccccccccc" />
    <path
       style="fill:none;stroke:#000000;stroke-width:0.0328607"
       d="m 137.80204,152.29173 -4.15733,-1.50356 0.0643,-1.65032 0.0918,-1.63032 1.26236,-1.68227 1.26235,-1.68227 0.36871,0.001 6.5609,0.20631 -0.93595,7.65305 -0.36509,1.75138 -4.15213,-1.46325 z"
       id="path21694"
       sodipodi:nodetypes="cccccccccccc" />
    <path
       style="fill:none;stroke:#000000;stroke-width:0.0328607"
       d="m 133.67942,160.22768 -1.71858,-0.93767 -0.81125,-2.4471 -0.73742,-2.37325 1.02142,-1.13169 1.54307,-1.72262 0.60463,-0.59737 8.15748,2.94064 -6.35863,7.11391 z"
       id="path21696"
       sodipodi:nodetypes="cccccccccc" />
    <path
       style="fill:none;stroke:#000000;stroke-width:0.0328607"
       d="m 139.36703,144.04093 -3.00061,-0.10603 -1.07584,-1.43741 -0.98785,-1.40599 -0.0813,-1.84333 -0.0813,-1.84332 0.65084,-1.69541 0.65084,-1.6954 2.72341,0.0293 2.75133,0.0569 1.15007,4.83955 1.16922,5.00757 -0.45453,0.1819 -3.4142,-0.0883 z"
       id="path21698"
       sodipodi:nodetypes="ccccccccccccccc" />
    <path
       style="fill:none;stroke:#000000;stroke-width:0.0328607"
       d="m 122.0336,146.16443 -0.10016,-1.63019 -0.0533,-1.30416 1.01226,-1.47805 1.11411,-1.58268 1.52265,0.10216 1.45286,0.23885 0.47023,1.06824 0.43816,1.03618 -0.0114,1.04667 -0.0652,1.69819 -0.0538,0.65151 -2.65178,0.2335 -2.83977,0.23966 -0.23489,-0.31988 z"
       id="path21702"
       sodipodi:nodetypes="cccccccccccccccc" />
    <path
       style="fill:none;stroke:#000000;stroke-width:0.0328607"
       d="m 125.5519,140.08525 -1.44714,-0.22256 -0.16207,-2.63173 -0.16133,-2.97152 -0.0207,-0.36321 1.62716,-1.22236 1.62715,-1.22235 0.0885,0.32488 0.73594,2.58304 0.64741,2.25816 -0.74226,1.8282 -0.75464,1.83339 z"
       id="path21704"
       sodipodi:nodetypes="ccccccccccccc" />
    <path
       style="fill:none;stroke:#000000;stroke-width:0.0328607"
       d="m 120.16385,142.40614 -1.4659,-0.64505 0.27751,-2.72115 0.32023,-2.67842 0.61578,-1.56499 0.6888,-1.71065 1.50246,0.33173 1.42944,0.47741 0.0474,0.45075 0.25646,5.64632 -2.15419,3.01851 -1.51802,-0.60446 z"
       id="path21706"
       sodipodi:nodetypes="ccccccccccccc" />
    <path
       style="fill:none;stroke:#000000;stroke-width:0.0328607"
       d="m 110.54768,141.3427 -1.94345,-3.00533 -0.35371,-0.48598 8.6627,-4.50689 1.15045,1.44093 1.06014,1.46694 -0.32895,2.75384 -0.32895,2.75385 -3.04069,1.03931 -3.1813,1.0647 z"
       id="path21708"
       sodipodi:nodetypes="ccccccccccc" />
    <path
       style="fill:none;stroke:#000000;stroke-width:0.0328607"
       d="m 103.09202,140.54972 -2.32208,-1.31906 -0.75438,-1.91276 -0.917397,-2.33283 -0.16304,-0.42007 0.54493,0.0488 3.046897,0.10401 2.50199,0.0552 1.54987,1.66368 1.83572,1.99342 0.28585,0.32973 -1.12079,1.06303 -1.64313,1.55445 -0.52236,0.49143 z"
       id="path21710"
       sodipodi:nodetypes="ccccccccccccccc" />
    <path
       style="fill:none;stroke:#000000;stroke-width:0.0328607"
       d="m 101.15524,148.39259 -2.056437,-1.01753 -0.54959,-2.43588 -0.37036,-2.52137 1.27024,-1.51042 1.227687,-1.41573 4.58116,2.54338 0.42792,2.37058 0.32463,2.30221 -0.73222,0.69932 -2.08644,1.94841 z"
       id="path21712"
       sodipodi:nodetypes="cccccccccccc" />
    <path
       style="fill:none;stroke:#000000;stroke-width:0.0328607"
       d="m 95.465133,141.98165 -2.21236,-0.40387 -0.83068,-3.33349 -0.83067,-3.33348 1.99971,-1.94432 2.10314,-1.94817 1.56441,1.7838 1.46098,1.78764 0.89175,2.2705 0.891277,2.36392 -2.697417,3.14822 z"
       id="path21714"
       sodipodi:nodetypes="cccccccccccc" />
    <path
       style="fill:none;stroke:#000000;stroke-width:0.0328607"
       d="m 85.832393,145.60878 0.50782,-5.00813 0.59449,-4.66704 4.46908,-0.91308 0.85319,3.3407 0.82227,3.30386 -0.82398,2.06127 -1.04822,2.10335 -2.82392,0.10007 -2.5997,0.058 z"
       id="path21718"
       sodipodi:nodetypes="ccccccccccc" />
    <path
       style="fill:none;stroke:#000000;stroke-width:0.0328607"
       d="m 90.179873,155.01647 -1.82296,-0.21148 -2.51917,-8.63097 2.79872,-0.0772 2.78332,-0.0633 1.33192,2.00171 1.33191,2.00172 -0.82019,2.55222 -0.82019,2.55222 -0.25202,0.0115 -2.01134,-0.13637 z"
       id="path21720"
       sodipodi:nodetypes="cccccccccccc" />
    <path
       style="fill:none;stroke:#000000;stroke-width:0.0328607"
       d="m 83.462173,157.72703 -2.93725,-0.32475 -1.82516,-22.77291 2.2355,-1.28242 2.30824,-1.02832 3.34865,3.71336 -0.98919,9.86426 1.25136,4.59241 1.28536,4.44762 -0.57614,1.55886 -0.57614,1.55885 -0.3063,-0.0114 -3.21893,-0.31552 z"
       id="path21722"
       sodipodi:nodetypes="cccccccccccccc" />
    <path
       style="fill:none;stroke:#000000;stroke-width:0.0328607"
       d="m 70.028333,158.70535 -4.3236,-3.36907 -0.46101,-6.52951 -0.39661,-6.24766 2.75811,-6.62002 2.82296,-6.69535 6.4583,0.29828 0.80835,2.40001 0.73284,2.33284 0.94547,11.61608 0.94547,11.61608 -0.25103,1.89342 -0.27577,1.91468 -5.28587,0.47799 z"
       id="path21724"
       sodipodi:nodetypes="ccccccccccccccc" />
    <path
       style="fill:none;stroke:#000000;stroke-width:0.0328607"
       d="m 38.823742,188.30189 -2.269614,-0.36101 -2.215193,-4.21737 4.400783,-3.07482 4.40078,-2.98887 2.446042,-3.07625 2.446043,-3.07626 0.74129,-3.56272 0.74128,-3.56273 7.99657,-4.29377 8.07083,-4.29421 8.45881,6.11934 1.32691,5.83501 1.13942,5.79066 -6.59423,6.47853 -6.59321,6.33923 -3.86178,0.72057 -3.86178,0.72058 -6.60773,0.4295 -7.259805,0.42171 z"
       id="path21726"
       sodipodi:nodetypes="ccccccccccccccccccccc" />
    <path
       style="fill:none;stroke:#000000;stroke-width:0.0328607"
       d="m 74.083973,197.30416 -5.01135,-1.09909 -2.78629,-4.88023 -2.76247,-4.85401 0.60096,-0.59152 6.55181,-6.30737 5.95084,-5.71586 0.18393,0.23067 3.36924,4.77368 3.18531,4.54301 -2.0168,7.49523 -2.14722,7.4868 z"
       id="path21728"
       sodipodi:nodetypes="ccccccccccccc" />
    <path
       style="fill:none;stroke:#000000;stroke-width:0.0328607"
       d="m 74.400023,214.98044 0.65067,-3.84726 1.68865,-3.31986 1.68865,-3.31986 0.55261,-3.07051 2.55938,-10.49577 2.02969,-7.44511 6.80454,0.23468 6.78161,0.25452 3.731787,3.7279 3.73179,3.72791 -3.80467,8.20147 -3.804667,8.20147 -2.93796,2.47755 -2.93796,2.47754 -5.33576,2.87811 -5.33577,2.8781 -3.12997,0.14551 -3.35664,0.14319 -0.22666,-0.002 z"
       id="path21730"
       sodipodi:nodetypes="ccccccccccccccccccccc" />
    <path
       style="fill:none;stroke:#000000;stroke-width:0.0328607"
       d="m 102.93758,210.21374 -5.437047,-2.27287 -0.2639,-0.11155 3.758447,-8.08578 3.79207,-8.17183 10.88058,1.65642 2.38407,16.94818 -9.92531,2.20815 z"
       id="path21732"
       sodipodi:nodetypes="ccccccccc" />
    <path
       style="fill:none;stroke:#000000;stroke-width:0.0328607"
       d="m 117.1162,201.70017 -1.10524,-8.49473 5.01977,-0.72288 4.9582,-0.66131 4.82253,6.20004 4.87019,6.32428 -1.6203,2.19523 -1.94146,2.13779 -13.66292,1.45538 z"
       id="path21734"
       sodipodi:nodetypes="cccccccccc" />
    <path
       style="fill:none;stroke:#000000;stroke-width:0.0328607"
       d="m 145.02899,219.09329 -2.81506,-1.28182 -1.56787,-4.51288 -1.56788,-4.51289 -1.57005,-2.26054 -6.41983,-8.49492 -4.84978,-6.33961 3.90994,-6.55106 13.70119,-3.15389 2.95649,7.88974 2.9378,7.86842 0.35902,3.14828 0.35901,3.14828 -0.35258,3.51388 -0.35257,3.51388 0.11057,3.17709 0.11057,3.17708 -0.96811,1.48518 -1.06695,1.47639 z"
       id="path21736"
       sodipodi:nodetypes="cccccccccccccccccccc" />
    <path
       style="fill:none;stroke:#000000;stroke-width:0.0328607"
       d="m 128.80403,181.46361 -1.23852,-3.55951 6.07766,-4.18446 6.11511,-4.08097 4.55996,-5.74886 4.6185,-5.74887 6.21874,1.50068 -0.78681,7.07761 -0.9852,7.16904 -4.84387,4.00651 -4.69496,3.8656 -6.82509,1.58012 -6.91976,1.57963 z"
       id="path21738"
       sodipodi:nodetypes="cccccccccccccc" />
    <path
       style="fill:none;stroke:#000000;stroke-width:0.0328607"
       d="m 146.98191,189.78884 -2.91172,-7.94416 4.79868,-3.95349 4.7634,-3.92348 6.53929,3.26844 6.56314,3.28998 -5.22719,11.92903 -11.49076,5.21249 z"
       id="path21740"
       sodipodi:nodetypes="ccccccccc" />
    <path
       style="fill:none;stroke:#000000;stroke-width:0.0328607"
       d="m 136.15011,167.48429 -3.51311,-1.97627 1.38077,-2.11152 2.60369,-3.3428 3.32119,-3.65513 2.17708,-2.39446 0.33549,-1.70111 0.33549,-1.70111 0.35308,0.033 6.47461,0.46358 -0.35635,3.42907 -0.50186,3.42908 -4.40185,5.54787 -4.5879,5.73726 -0.18605,0.18938 z"
       id="path21742"
       sodipodi:nodetypes="cccccccccccccccc" />
    <path
       style="fill:none;stroke:#000000;stroke-width:0.0328607"
       d="m 146.08983,150.67286 -3.19914,-0.28198 0.2623,-2.95524 0.31801,-3.16224 -1.17689,-5.27742 -1.17878,-5.0166 -0.16868,-2.63446 -0.14144,-2.66437 8.07922,0.34576 0.4329,10.21155 0.42912,10.92598 0.0426,0.76076 -0.27693,-0.0118 -3.42224,-0.23995 z"
       id="path21744"
       sodipodi:nodetypes="ccccccccccccccc" />
    <path
       style="fill:none;stroke:#000000;stroke-width:0.0328607"
       d="m 152.1043,158.68192 -3.13932,-0.74903 0.49632,-3.44359 0.50566,-3.43428 -0.4312,-11.12881 -0.4312,-11.1288 -0.99364,-3.30274 -0.97734,-3.31905 6.95873,-0.97422 3.98362,6.78188 3.96052,6.74999 0.1416,6.68283 0.18298,7.4237 0.0414,0.74087 -3.52435,4.86701 -3.58407,4.92048 -3.1897,-0.68624 z"
       id="path21746"
       sodipodi:nodetypes="cccccccccccccccccc" />
    <path
       style="fill:none;stroke:#000000;stroke-width:0.0328607"
       d="m 131.1082,136.9111 -2.4385,-0.42441 -0.77507,-2.62309 -0.72672,-2.54482 0.15267,-1.3911 0.16866,-1.4086 2.30951,0.39169 2.29353,0.40918 1.28937,1.82538 1.59565,2.26857 0.30628,0.44319 -0.64206,1.68694 -0.89262,1.70008 z"
       id="path21748"
       sodipodi:nodetypes="cccccccccccccc" />
    <path
       style="fill:none;stroke:#000000;stroke-width:0.0328607"
       d="m 130.1982,128.79256 -2.1392,-0.3873 -0.57794,-0.0975 -0.63371,-2.14614 -0.66849,-2.24033 1.37281,-1.86929 1.90684,-2.40454 0.49926,-0.62945 2.40312,2.64912 2.40313,2.64912 -1.32231,2.39272 -1.50229,2.38305 -1.74122,-0.29948 z"
       id="path21750"
       sodipodi:nodetypes="cccccccccccccc" />
    <path
       style="fill:none;stroke:#000000;stroke-width:0.0328607"
       d="m 137.14997,133.80209 -1.66422,-0.11339 -1.63977,-2.25191 -1.42228,-2.4282 2.55705,-4.47908 5.5364,4.04227 0.19314,2.14085 0.1782,2.62759 0.0484,0.5434 -1.11096,-0.0163 -2.67594,-0.0652 z"
       id="path21752"
       sodipodi:nodetypes="cccccccccccc" />
    <path
       style="fill:none;stroke:#000000;stroke-width:0.0328607"
       d="m 144.45325,128.61917 -3.01242,-0.11766 -0.66494,-0.008 -2.94323,-2.16893 -2.94323,-2.16893 -2.43134,-2.69219 -2.43135,-2.6922 -3.19964,-1.80323 -3.32293,-1.89875 -0.52333,-1.78705 -0.40004,-1.69153 1.63238,-1.63407 1.69466,-1.63408 10.52105,6.91523 10.45878,6.91523 0.97527,3.23546 0.97812,3.30066 -4.38781,-0.0696 z"
       id="path21754"
       sodipodi:nodetypes="ccccccccccccccccccc" />
    <path
       style="fill:none;stroke:#000000;stroke-width:0.0328607"
       d="m 123.80754,123.60736 -1.62053,-0.0956 -2.46927,-4.96053 3.62098,-3.27359 3.25954,1.80198 3.08519,1.9345 -1.91566,2.41479 -2.07986,2.26918 -1.88039,-0.0907 z"
       id="path21756"
       sodipodi:nodetypes="cccccccccc" />
    <path
       style="fill:none;stroke:#000000;stroke-width:0.0328607"
       d="m 122.08695,133.21743 -1.41578,-0.66695 -0.16508,-2.83909 -0.16214,-2.65071 0.9131,-1.653 0.93642,-1.67807 3.75821,0.18743 0.68518,2.23726 0.65631,2.20839 -0.15355,1.41522 -0.15355,1.41523 -1.67686,1.25829 -1.74315,1.25144 z"
       id="path21758"
       sodipodi:nodetypes="cccccccccccccc" />
    <path
       style="fill:none;stroke:#000000;stroke-width:0.0328607"
       d="m 115.45444,127.52415 -1.23994,-1.40518 -0.41579,-3.05144 -0.35662,-3.10185 5.99328,-1.29812 1.34103,2.46701 1.23216,2.46612 -0.91535,1.66972 -0.91534,1.66971 -1.29513,0.73926 -1.74174,0.9946 -0.44661,0.25534 z"
       id="path21760"
       sodipodi:nodetypes="ccccccccccccc" />
    <path
       style="fill:none;stroke:#000000;stroke-width:0.0328607"
       d="m 118.13343,134.52824 -1.01918,-1.42211 -0.16904,-1.98047 -0.1545,-1.99503 1.68215,-0.96946 1.66761,-0.9549 0.0493,0.53474 0.1791,2.77446 0.12978,2.23973 -0.61465,1.54233 -0.67303,1.59758 -1.07755,-1.36687 z"
       id="path21762"
       sodipodi:nodetypes="ccccccccccccc" />
    <path
       style="fill:none;stroke:#000000;stroke-width:0.0328607"
       d="m 106.84396,136.38489 -1.45147,-1.55521 -0.37664,-1.86929 -0.0821,-3.45967 0.12545,-1.85403 8.87813,-1.32563 1.30416,1.2756 1.23375,1.42201 0.23941,1.78762 0.17702,1.95774 0.0424,0.31498 -3.71611,1.93733 -4.42183,2.31669 -0.70572,0.37939 z"
       id="path21764"
       sodipodi:nodetypes="ccccccccccccccc" />
    <path
       style="fill:none;stroke:#000000;stroke-width:0.0328607"
       d="m 104.99025,127.37132 -1.6089,-5.43269 5.4321,-3.76165 4.3144,1.77906 0.8516,6.00659 -2.2388,0.46888 -4.48067,0.65973 z"
       id="path21766"
       sodipodi:nodetypes="cccccccc" />
    <path
       style="fill:none;stroke:#000000;stroke-width:0.0328607"
       d="m 101.15411,129.3153 -3.550437,-1.80084 -0.53221,-4.13913 6.078997,-1.30337 0.85926,2.77113 0.83117,2.74035 -0.0884,1.73619 -0.10509,1.75287 -3.4933,-1.7572 z"
       id="path21768"
       sodipodi:nodetypes="cccccccccc" />
    <path
       style="fill:none;stroke:#000000;stroke-width:0.0328607"
       d="m 100.9727,134.49107 -2.103507,-0.11816 -2.89144,-3.50769 0.66003,-1.58962 0.82429,-1.50862 7.145637,3.58095 0.22185,1.64532 0.16018,1.58592 -1.00434,-0.0144 z"
       id="path21770"
       sodipodi:nodetypes="cccccccccc" />
    <path
       style="fill:none;stroke:#000000;stroke-width:0.0328607"
       d="m 85.100923,133.94936 -1.58373,-1.88465 9.5088,-8.8377 0.39125,-0.37054 1.6886,0.25391 1.71379,0.27912 0.2709,2.07249 0.24569,2.04729 -0.84453,1.60044 -0.84454,1.60045 -1.24537,1.19656 -2.13757,2.03312 -0.8922,0.83655 -2.30597,0.49598 -2.30598,0.49598 z"
       id="path21772"
       sodipodi:nodetypes="cccccccccccccccc" />
    <path
       style="fill:none;stroke:#000000;stroke-width:0.0328607"
       d="m 78.550573,134.03577 -0.73216,-2.35286 -0.69487,-2.24419 7.52165,-8.36296 7.63255,-8.44039 2.14671,1.42386 2.19458,1.65144 -1.60846,3.58253 -1.76722,3.43238 -4.9789,4.64437 -4.97889,4.64438 -2.27452,1.06506 -2.34884,1.06506 z"
       id="path21774"
       sodipodi:nodetypes="cccccccccccccc" />
    <path
       style="fill:none;stroke:#000000;stroke-width:0.0328607"
       d="m 95.156113,122.9391 -1.56498,-0.31585 3.39423,-6.72082 10.990387,-1.64813 0.44191,1.86154 0.31608,1.83742 -2.78439,1.93794 -2.78439,1.93794 -3.13439,0.6802 -3.221927,0.67 z"
       id="path21776"
       sodipodi:nodetypes="ccccccccccc" />
    <path
       style="fill:none;stroke:#000000;stroke-width:0.0328607"
       d="m 111.1934,118.87837 -2.19392,-0.92586 -0.72203,-3.7754 6.91921,-1.24378 7.04827,-1.26949 0.51256,1.54353 0.41224,1.72033 -3.74556,3.48587 -3.05377,0.69235 -2.95993,0.64341 z"
       id="path21778"
       sodipodi:nodetypes="ccccccccccc" />
    <path
       style="fill:none;stroke:#000000;stroke-width:0.0328607"
       d="m 94.793203,114.07657 -2.24418,-1.68069 1.83404,-2.60831 1.90042,-2.57073 27.174327,-2.83166 1.16507,1.88756 1.10589,1.81959 -1.67962,1.67923 -1.67963,1.67922 -7.08592,1.26572 -12.5199,2.08689 -5.607877,0.85948 z"
       id="path21780"
       sodipodi:nodetypes="ccccccccccccc" />
    <path
       style="fill:none;stroke:#000000;stroke-width:0.0328607"
       d="m 73.594063,129.14083 -2.52473,-0.11761 -0.61195,-0.008 -0.58909,-4.46653 -0.58909,-4.46652 3.28101,-5.90152 3.30705,-5.93537 8.48222,-2.57093 8.45617,-2.53708 1.63169,1.95834 1.63169,2.01128 -1.9345,2.66096 -9.54175,11.0581 -7.60724,8.4501 -0.73936,-0.0128 -2.65212,-0.12196 z"
       id="path21782"
       sodipodi:nodetypes="ccccccccccccccccc" />
    <path
       style="fill:none;stroke:#000000;stroke-width:0.0328607"
       d="m 49.352343,163.94983 -3.03852,-5.38721 -2.91262,-5.18619 1.003001,-7.46413 1.029184,-7.49627 19.216205,4.18936 0.81569,12.66911 -5.3e-4,0.30701 -7.92704,4.25754 -7.99328,4.28467 -0.19215,-0.17389 z"
       id="path21784"
       sodipodi:nodetypes="cccccccccccc" />
    <path
       style="fill:none;stroke:#000000;stroke-width:0.0328607"
       d="m 54.976983,140.2795 -9.574924,-2.10801 -4.667777,-3.38288 -4.667773,-3.38289 -3.375912,-4.4819 -4.067676,-5.86871 -0.691764,-1.3868 0.617311,-1.52152 0.617312,-1.52151 3.129977,-0.72899 3.129976,-0.72899 4.303717,0.32217 7.679713,0.61439 3.37599,0.29221 9.07737,1.84752 9.15697,1.89695 0.66199,4.48357 0.58238,4.43413 -2.77678,6.64654 -2.85598,6.66463 z"
       id="path21786"
       sodipodi:nodetypes="ccccccccccccccccccccc" />
    <path
       style="fill:none;stroke:#000000;stroke-width:0.0328607"
       d="m 59.868963,118.05619 -8.9002,-1.85656 1.63417,-7.34736 1.67813,-7.30339 5.48194,-4.384945 5.57736,-4.24268 5.20208,7.643495 5.07898,7.62477 -3.24458,5.90781 -3.43428,5.77787 z"
       id="path21788"
       sodipodi:nodetypes="ccccccccccc" />
    <path
       style="fill:none;stroke:#000000;stroke-width:0.0328607"
       d="m 70.673233,100.40261 -5.27316,-7.890145 -0.45922,-3.97003 -0.351,-3.65164 -1.73662,-3.96652 -1.73662,-3.96651 -0.6045,-4.33501 -0.60451,-4.335 0.88557,-1.71875 0.99572,-1.71875 6.18767,1.41929 2.79182,2.32631 5.04764,4.33822 4.89136,4.04484 2.49552,1.91276 6.54174,7.64534 6.51936,7.71821 -3.5994,8.696665 -16.75158,5.02248 z"
       id="path21790"
       sodipodi:nodetypes="cccccccccccccccccccc" />
    <path
       style="fill:none;stroke:#000000;stroke-width:0.0328607"
       d="m 90.532843,87.128525 -6.49895,-7.59881 -0.5715,-0.66613 4.45576,-3.11166 4.45577,-3.11166 6.21184,-0.58853 6.232917,-0.56746 0.9684,20.1933 -4.6918,1.21881 -4.635007,1.16343 z"
       id="path21792"
       sodipodi:nodetypes="ccccccccccc" />
    <path
       style="fill:none;stroke:#000000;stroke-width:0.0328607"
       d="m 111.76238,91.950995 -5.68819,-0.28666 -1.01194,-20.1864 5.37658,-0.20163 5.34453,-0.16958 2.59753,1.53028 2.65795,1.58847 -3.60635,17.9678 z"
       id="path21794"
       sodipodi:nodetypes="ccccccccc" />
    <path
       style="fill:none;stroke:#000000;stroke-width:0.0328607"
       d="m 94.634453,105.01049 -1.62302,-2.10631 3.48373,-8.598645 4.791767,-1.24609 4.73716,-1.18395 5.30357,0.22678 6.47841,0.394757 3.5225,3.184153 4.02564,3.46102 0.20249,0.19894 -1.06466,2.382115 -1.07192,2.3938 -13.2662,1.4142 -13.563227,1.44255 z"
       id="path21796"
       sodipodi:nodetypes="ccccccccccccccc" />
    <path
       style="fill:none;stroke:#000000;stroke-width:0.0328607"
       d="m 121.67909,95.700215 -4.01516,-3.61828 1.83765,-8.97348 1.79527,-8.8248 0.31898,-0.40921 3.5755,-4.4776 3.25652,-4.0684 4.37548,-3.34734 4.37548,-3.347332 3.05466,-0.764569 3.15084,-0.72766 0.55997,2.178728 0.46379,2.141823 -1.1914,4.41107 -2.44116,8.71479 -1.24975,4.30372 -1.47988,8.73785 -1.52748,8.96163 -4.76076,1.2537 -5.37709,1.17743 -0.66393,0.14752 z"
       id="path21798"
       sodipodi:nodetypes="cccccccccccccccccccccc" />
    <path
       style="fill:none;stroke:#000000;stroke-width:0.0328607"
       d="m 136.45442,115.00268 -10.5202,-6.96388 -1.16204,-1.91011 -1.08122,-2.09714 2.19979,-4.700955 5.41022,-1.18572 5.2798,-1.14928 4.99183,2.03022 4.99183,2.030215 3.30935,4.75373 3.30934,4.75374 0.39405,4.94365 0.43046,5.20906 0.0364,0.26539 -3.49124,0.49893 -3.5347,0.49247 z"
       id="path21800"
       sodipodi:nodetypes="ccccccccccccccccc" />
    <path
       style="fill:none;stroke:#000000;stroke-width:0.0328607"
       d="m 141.62121,98.829025 -4.91869,-2.00678 0.19399,-1.14034 1.51458,-8.92182 1.3339,-7.79308 4.35414,0.73902 4.34084,0.75064 4.09257,4.56455 4.39078,4.89655 0.2982,0.332 -5.29707,5.29761 -5.34081,5.293015 z"
       id="path21802"
       sodipodi:nodetypes="ccccccccccccc" />
    <path
       style="fill:none;stroke:#000000;stroke-width:0.0328607"
       d="m 150.04279,105.69002 -3.27872,-4.71462 5.27843,-5.282545 5.40248,-5.23519 7.98283,5.12279 1.95715,10.925615 -6.97753,1.9511 -6.99897,1.91804 z"
       id="path21804"
       sodipodi:nodetypes="ccccccccc" />
    <path
       style="fill:none;stroke:#000000;stroke-width:0.0328607"
       d="m 158.20241,127.79059 -3.98059,-6.77616 -0.42061,-5.19413 -0.39302,-5.22229 7.14331,-1.97732 7.11574,-1.94918 3.73858,-0.003 7.90782,0.27688 4.16923,0.2796 3.4047,1.65696 3.40469,1.65697 1.38128,1.52849 1.38129,1.5285 0.44768,1.89107 0.44769,1.89107 -0.93501,2.23178 -0.93501,2.23178 -2.59918,0.8046 -3.42515,1.06122 -4.65149,2.67732 -3.82553,2.42069 -7.65105,2.85499 -7.69791,2.88051 -4.02746,-6.75064 z"
       id="path21806"
       sodipodi:nodetypes="ccccccccccccccccccccccccc" />
    <path
       style="fill:none;stroke:#000000;stroke-width:0.0328607"
       d="m 169.84036,153.5732 -7.21586,-3.94449 -0.0615,-0.89531 -0.27016,-13.97884 15.17526,-5.67774 4.24987,15.76172 -4.55485,12.40391 -0.10688,0.27525 z"
       id="path21808"
       sodipodi:nodetypes="ccccccccc" />
    <path
       style="fill:none;stroke:#000000;stroke-width:0.0328607"
       d="m 184.44739,183.08827 -6.91203,-1.29327 -4.21678,-0.87113 -3.20952,-0.26972 -3.20953,-0.26972 -6.59339,-3.29692 -6.59082,-3.31854 0.85277,-7.10754 0.8502,-7.08592 3.54659,-4.89405 3.54659,-4.89404 0.27387,0.16074 7.26791,3.98114 6.99404,3.82039 3.57605,3.33233 3.57605,3.33232 2.57849,4.71647 4.1025,9.05836 0.54891,1.57268 -2.08479,1.8616 -2.14332,1.87427 z"
       id="path21810"
       sodipodi:nodetypes="cccccccccccccccccccccc" />
  </g>
</svg>
